<svg width="27" height="26" viewBox="0 0 27 26" fill="none" xmlns="http://www.w3.org/2000/svg">
<path d="M10.2503 11.9167L12.417 14.0833L17.292 9.20833M13.4929 5.5638C11.3269 3.0316 7.71505 2.35045 5.00124 4.66918C2.28744 6.98792 1.90537 10.8647 4.03654 13.6071C5.64626 15.6785 10.2192 19.8369 12.3607 21.7478C12.7543 22.0991 12.9512 22.2747 13.1816 22.3439C13.3817 22.4039 13.6041 22.4039 13.8042 22.3439C14.0347 22.2747 14.2315 22.0991 14.6251 21.7478C16.7666 19.8369 21.3396 15.6785 22.9493 13.6071C25.0804 10.8647 24.745 6.96353 21.9846 4.66918C19.2241 2.37484 15.6589 3.0316 13.4929 5.5638Z" stroke="#1A3F70" stroke-width="2" stroke-linecap="round" stroke-linejoin="round"/>
</svg>
