<svg width="17" height="17" viewBox="0 0 17 17" fill="none" xmlns="http://www.w3.org/2000/svg">
<g clip-path="url(#clip0_32_10188)">
<path d="M8.85938 0.408447C13.1406 0.408447 16.6094 3.8772 16.6094 8.15845C16.6094 12.4397 13.1406 15.9084 8.85938 15.9084C4.57812 15.9084 1.10938 12.4397 1.10938 8.15845C1.10938 3.8772 4.57812 0.408447 8.85938 0.408447ZM7.95625 4.89595L10.3156 7.15845H4.60938C4.19375 7.15845 3.85938 7.49282 3.85938 7.90845V8.40845C3.85938 8.82407 4.19375 9.15845 4.60938 9.15845H10.3156L7.95625 11.4209C7.65313 11.7116 7.64687 12.1959 7.94375 12.4928L8.2875 12.8334C8.58125 13.1272 9.05625 13.1272 9.34688 12.8334L13.4937 8.6897C13.7875 8.39595 13.7875 7.92095 13.4937 7.63032L9.34688 3.48032C9.05313 3.18657 8.57812 3.18657 8.2875 3.48032L7.94375 3.82095C7.64687 4.12095 7.65313 4.60532 7.95625 4.89595Z" fill="#1A3F70"/>
</g>
<defs>
<clipPath id="clip0_32_10188">
<rect width="16" height="16" fill="white" transform="translate(0.859375 0.158447)"/>
</clipPath>
</defs>
</svg>
