<svg width="25" height="25" viewBox="0 0 25 25" fill="none" xmlns="http://www.w3.org/2000/svg">
<path d="M20.0234 13.3361V7.63606C20.0234 5.9559 20.0234 5.11582 19.6965 4.47409C19.4088 3.9096 18.9499 3.45066 18.3854 3.16304C17.7437 2.83606 16.9036 2.83606 15.2234 2.83606H8.82344C7.14328 2.83606 6.3032 2.83606 5.66147 3.16304C5.09698 3.45066 4.63804 3.9096 4.35042 4.47409C4.02344 5.11582 4.02344 5.9559 4.02344 7.63606V18.0361C4.02344 19.7162 4.02344 20.5563 4.35042 21.198C4.63804 21.7625 5.09698 22.2215 5.66147 22.5091C6.3032 22.8361 7.14328 22.8361 8.82344 22.8361H12.0234M14.0234 11.8361H8.02344M10.0234 15.8361H8.02344M16.0234 7.83606H8.02344M14.5234 19.8361L16.5234 21.8361L21.0234 17.3361" stroke="#1A3F70" stroke-width="2" stroke-linecap="round" stroke-linejoin="round"/>
</svg>
