<svg width="25" height="25" viewBox="0 0 25 25" fill="none" xmlns="http://www.w3.org/2000/svg">
<path d="M20.0381 10.1445V7.44453C20.0381 5.76437 20.0381 4.92429 19.7111 4.28256C19.4235 3.71807 18.9645 3.25913 18.4001 2.97151C17.7583 2.64453 16.9182 2.64453 15.2381 2.64453H8.83809C7.15793 2.64453 6.31785 2.64453 5.67611 2.97151C5.11163 3.25913 4.65269 3.71807 4.36507 4.28256C4.03809 4.92429 4.03809 5.76437 4.03809 7.44453V17.8445C4.03809 19.5247 4.03809 20.3648 4.36507 21.0065C4.65269 21.571 5.11163 22.0299 5.67611 22.3176C6.31785 22.6445 7.15793 22.6445 8.83809 22.6445H14.0381M14.0381 11.6445H8.03809M10.0381 15.6445H8.03809M16.0381 7.64453H8.03809M16.5381 15.6468C16.7143 15.1459 17.0621 14.7235 17.5198 14.4545C17.9776 14.1855 18.5158 14.0871 19.0391 14.1769C19.5624 14.2667 20.0371 14.5387 20.379 14.9449C20.721 15.3511 20.9081 15.8652 20.9073 16.3962C20.9073 17.8951 18.659 18.6445 18.659 18.6445M18.688 21.6445H18.698" stroke="#1570EF" stroke-width="2" stroke-linecap="round" stroke-linejoin="round"/>
</svg>
