<svg width="25" height="25" viewBox="0 0 25 25" fill="none" xmlns="http://www.w3.org/2000/svg">
<path d="M14.0381 2.91406V7.0446C14.0381 7.60466 14.0381 7.88468 14.1471 8.09859C14.243 8.28676 14.3959 8.43974 14.5841 8.53561C14.798 8.6446 15.078 8.6446 15.6381 8.6446H19.7686M16.0381 13.6445H8.03809M16.0381 17.6445H8.03809M10.0381 9.64453H8.03809M14.0381 2.64453H8.83809C7.15793 2.64453 6.31785 2.64453 5.67611 2.97151C5.11163 3.25913 4.65269 3.71807 4.36507 4.28256C4.03809 4.9243 4.03809 5.76437 4.03809 7.44453V17.8445C4.03809 19.5247 4.03809 20.3648 4.36507 21.0065C4.65269 21.571 5.11163 22.0299 5.67611 22.3176C6.31785 22.6445 7.15793 22.6445 8.83809 22.6445H15.2381C16.9182 22.6445 17.7583 22.6445 18.4001 22.3176C18.9645 22.0299 19.4235 21.571 19.7111 21.0065C20.0381 20.3648 20.0381 19.5247 20.0381 17.8445V8.64453L14.0381 2.64453Z" stroke="#1570EF" stroke-width="2" stroke-linecap="round" stroke-linejoin="round"/>
</svg>
