<svg width="31" height="30" viewBox="0 0 31 30" fill="none" xmlns="http://www.w3.org/2000/svg">
<path d="M11.9203 11.4204L6.66117 6.16119M6.66117 23.8389L11.96 18.5401M19.0763 18.5797L24.3355 23.8389M24.3355 6.16119L19.0359 11.4608M28 15C28 21.9036 22.4036 27.5 15.5 27.5C8.59644 27.5 3 21.9036 3 15C3 8.09644 8.59644 2.5 15.5 2.5C22.4036 2.5 28 8.09644 28 15ZM20.5 15C20.5 17.7614 18.2614 20 15.5 20C12.7386 20 10.5 17.7614 10.5 15C10.5 12.2386 12.7386 10 15.5 10C18.2614 10 20.5 12.2386 20.5 15Z" stroke="#1A3F70" stroke-width="2" stroke-linecap="round" stroke-linejoin="round"/>
</svg>
