<svg width="193" height="61" viewBox="0 0 193 61" fill="none" xmlns="http://www.w3.org/2000/svg">
<mask id="mask0_2005_45" style="mask-type:luminance" maskUnits="userSpaceOnUse" x="0" y="0" width="193" height="61">
<path d="M192.255 0.6427H0.104492V60.6486H192.255V0.6427Z" fill="white"/>
</mask>
<g mask="url(#mask0_2005_45)">
<path d="M3.24007 22.5353H7.66147V25.992H7.77426C8.81193 24.0039 11.3836 21.9027 15.241 21.9027C23.204 21.9027 24.6703 27.1443 24.6703 33.9672V48.0424H19.9105C18.1736 48.0424 16.775 46.6417 16.775 44.9246V35.5713C16.775 32.6343 16.7298 28.8387 12.6919 28.8387C8.65403 28.8387 7.97728 32.0469 7.97728 35.3454V48.0424H0.104492V25.6532C0.104492 23.9135 1.5031 22.5127 3.24007 22.5127" fill="#1A3F70"/>
<path d="M35.3415 49.9402C35.3415 56.4469 33.0857 60.6491 25.9122 60.6491C24.6715 60.6943 23.4308 60.5587 22.2354 60.2198V53.2613C23.0248 53.5776 23.8594 53.7358 24.6941 53.7358C27.4236 53.7358 27.4687 50.5276 27.4687 48.5846V25.6532C27.4687 23.9135 28.8673 22.5127 30.6043 22.5127H35.3415V49.9176V49.9402Z" fill="#1A3F70"/>
<path d="M61.9608 43.6595C59.4343 46.8676 55.3062 48.6976 51.2232 48.6976C43.3504 48.6976 37.0566 43.4335 37.0566 35.3002C37.0566 27.1669 43.3504 21.9027 51.2232 21.9027C58.5546 21.9027 63.179 27.1443 63.179 35.3002V37.7628H44.9294C45.5611 40.745 47.8169 42.688 50.8622 42.688C52.3285 42.7106 53.7497 42.2135 54.8776 41.2872C56.0055 40.4061 57.5846 40.4061 58.735 41.2646L61.9608 43.6595ZM55.3062 32.4083C55.3739 29.8102 53.2985 27.6413 50.7043 27.5735C50.6366 27.5735 50.5464 27.5735 50.4787 27.5735C47.0273 27.5735 45.155 29.9457 44.9294 32.4083H55.3062Z" fill="#1A3F70"/>
<path d="M81.3839 44.8569H81.2711C79.5342 47.5906 76.3986 48.6976 73.1953 48.6976C68.413 48.6976 64.127 45.9639 64.127 40.8128C64.127 32.0017 74.8195 31.8435 81.3839 31.8435C81.3839 29.0646 79.083 27.2798 76.3535 27.2798C74.7744 27.2798 73.2404 27.7317 71.9321 28.6128C70.6688 29.4713 68.977 29.3132 67.9167 28.2287L65.7737 26.0372C68.6611 23.3035 72.8569 21.9479 76.9851 21.9479C86.1663 21.9479 88.6251 26.6246 88.6251 35.1194V44.9472C88.6251 46.6869 87.2265 48.0876 85.4895 48.0876H81.3839V44.902V44.8569ZM79.4439 36.8817C77.0302 36.8817 71.6839 37.085 71.6839 40.5643C71.6839 42.462 73.6691 43.3432 75.406 43.3432C78.4965 43.3432 81.3839 41.7165 81.3839 38.5761V36.9043H79.4439V36.8817Z" fill="#1A3F70"/>
<path d="M31.5271 8.07576C27.5118 10.9224 25.3462 15.1021 24.7822 18.5587H24.8048C28.0983 19.8239 33.7378 20.6372 38.2269 18.5587C37.4599 14.3339 35.0462 10.5609 31.5271 8.07576Z" fill="#1A3F70"/>
<path d="M30.762 14.5376L32.4088 14.9443C32.4088 14.9443 32.4088 13.8146 32.4088 13.7017C31.9576 13.4532 31.4613 13.295 30.9651 13.2046C30.8523 13.2498 30.7846 14.5376 30.7846 14.5376M28.3709 13.0465C28.0551 12.4365 29.1379 12.0298 29.95 11.9846C31.4613 11.8717 31.89 12.4365 32.9727 12.7076C34.0555 12.9787 34.6646 12.1654 34.9579 12.7754C35.1834 13.2272 34.6872 13.4983 34.3713 13.6113C34.0781 13.7017 33.7848 13.792 33.469 13.8372L33.5818 15.238L35.9504 15.8028L33.6946 16.0965C33.6946 16.5709 33.7848 17.0228 33.8751 17.4746C34.236 18.288 32.7697 18.6946 32.6344 17.7683C32.499 16.842 32.4088 16.1643 32.4088 16.1643L30.6267 16.3676C30.6267 16.3676 30.6493 17.8813 30.6718 18.062C30.7169 18.5817 29.2506 18.7398 29.2055 18.062C29.2055 17.5424 29.2055 17.0228 29.2732 16.5032L28.1002 16.5935L28.6641 15.4865L27.5137 13.7469L29.5665 14.2439L29.7244 13.182C29.7244 13.182 29.5213 13.1369 29.4086 13.1369C29.3409 13.1594 28.5739 13.4983 28.3483 13.0465" fill="#E1DDD5"/>
<path d="M36.5115 15.8249L27.4206 13.6334L28.6613 15.4634L27.2627 17.1805L36.5115 15.8249Z" fill="#BF9A2E"/>
<path d="M91.5527 46.0769C91.5527 45.8509 91.5978 45.6476 91.6881 45.4669C91.7783 45.2861 91.8911 45.1054 92.0265 44.9698C92.1618 44.8343 92.3423 44.7213 92.5227 44.6309C92.7258 44.5406 92.9288 44.4954 93.1318 44.4954C93.3348 44.4954 93.5604 44.5406 93.7409 44.6309C93.9213 44.7213 94.1018 44.8343 94.2371 44.9698C94.3725 45.1054 94.4853 45.2861 94.5755 45.4669C94.6658 45.6702 94.7109 45.8735 94.7109 46.0769C94.7109 46.2802 94.6658 46.5061 94.5755 46.6869C94.4853 46.8902 94.3725 47.0483 94.2371 47.1839C94.1018 47.3195 93.9213 47.4324 93.7409 47.5228C93.5604 47.6132 93.3348 47.6583 93.1318 47.6583C92.9288 47.6583 92.7032 47.6132 92.5227 47.5228C92.3423 47.4324 92.1618 47.3195 92.0265 47.1839C91.8911 47.0483 91.7783 46.8676 91.6881 46.6869C91.5978 46.5061 91.5527 46.2802 91.5527 46.0769ZM91.8234 46.0769C91.8234 46.2576 91.8685 46.4157 91.9362 46.5739C92.0039 46.732 92.0941 46.8676 92.2069 46.9806C92.3197 47.0935 92.4551 47.1839 92.613 47.2517C92.7709 47.3194 92.9513 47.3646 93.1318 47.3646C93.3123 47.3646 93.4702 47.3194 93.6281 47.2517C93.786 47.1839 93.9213 47.0935 94.0341 46.9806C94.1469 46.8676 94.2372 46.732 94.3048 46.5739C94.3725 46.4157 94.4176 46.235 94.4176 46.0769C94.4176 45.9187 94.3951 45.738 94.3048 45.5798C94.2372 45.4217 94.1469 45.2861 94.0341 45.1732C93.9213 45.0602 93.786 44.9698 93.6281 44.902C93.4702 44.8343 93.2897 44.7891 93.1318 44.7891C92.9739 44.7891 92.7934 44.8343 92.613 44.902C92.4551 44.9698 92.3197 45.0602 92.2069 45.1732C92.0941 45.2861 92.0039 45.4217 91.9362 45.5798C91.8685 45.738 91.8234 45.9187 91.8234 46.0769ZM92.5227 45.1506H93.222C93.4476 45.1506 93.6055 45.1957 93.6958 45.2861C93.8086 45.3765 93.8537 45.512 93.8537 45.6928C93.8537 45.8509 93.8086 45.9639 93.7409 46.0543C93.6506 46.1446 93.5604 46.1898 93.4251 46.1898L93.8988 46.958H93.5379L93.0867 46.2124H92.8385V46.958H92.5002V45.1506H92.5227ZM92.8611 45.9413H93.1092C93.1092 45.9413 93.222 45.9413 93.2671 45.9413C93.3123 45.9413 93.3574 45.9413 93.4025 45.9187C93.4476 45.9187 93.4702 45.8735 93.4927 45.8509C93.5153 45.8057 93.5379 45.7606 93.5379 45.7154C93.5379 45.6702 93.5379 45.6024 93.4927 45.5798C93.4702 45.5572 93.4251 45.512 93.4025 45.512C93.3574 45.512 93.3123 45.4895 93.2671 45.4895C93.222 45.4895 93.1544 45.4895 93.1092 45.4895H92.8611V45.9865V45.9413Z" fill="#1B3D6F"/>
<path d="M106.739 8.59534H105.317V18.0616H106.739V8.59534Z" fill="#194070"/>
<path d="M114.699 18.0616H113.301V14.0401C113.301 12.6168 112.759 12.0972 111.835 12.0972C110.91 12.0972 110.368 12.7523 110.368 13.9046V18.0616H108.97V10.9675H110.368V11.6453C110.729 11.1257 111.429 10.8094 112.15 10.8094C113.797 10.8094 114.677 11.8938 114.677 13.9949V18.0616H114.699Z" fill="#194070"/>
<path d="M121.896 12.0068L121.084 13.0009C120.498 12.4134 119.979 12.1423 119.347 12.1423C118.332 12.1423 117.678 13.046 117.678 14.492C117.678 15.9379 118.265 16.8868 119.37 16.8868C120.024 16.8868 120.43 16.5931 120.971 16.0057L121.874 16.8868C121.31 17.5871 120.611 18.2197 119.325 18.2197C117.588 18.2197 116.257 16.7512 116.257 14.5371C116.257 12.1875 117.633 10.8094 119.37 10.8094C120.408 10.8094 121.22 11.2386 121.874 12.0068" fill="#194070"/>
<path d="M129.362 14.4694C129.362 16.819 127.986 18.1971 126.159 18.1971C124.332 18.1971 123.046 16.7286 123.046 14.5146C123.046 12.1875 124.422 10.8094 126.204 10.8094C127.986 10.8094 129.362 12.2553 129.362 14.4694ZM127.964 14.5146C127.964 13.0686 127.264 12.1423 126.159 12.1423C125.099 12.1423 124.467 13.0686 124.467 14.492C124.467 16.0509 125.189 16.9094 126.227 16.9094C127.264 16.9094 127.964 15.8475 127.964 14.5371" fill="#194070"/>
<path d="M140.64 18.0616H139.241V14.0401C139.241 12.6168 138.79 12.0972 137.888 12.0972C136.986 12.0972 136.534 12.7523 136.534 13.9046V18.0616H135.136V14.0401C135.136 12.6168 134.685 12.0972 133.782 12.0972C132.88 12.0972 132.429 12.7523 132.429 13.9046V18.0616H131.03V10.9675H132.429V11.6453C132.79 11.1257 133.376 10.8094 134.121 10.8094C135.068 10.8094 135.677 11.1709 136.061 11.8486C136.58 11.216 137.121 10.8094 138.226 10.8094C139.873 10.8094 140.663 11.8938 140.663 13.9949V18.0616H140.64Z" fill="#194070"/>
<path d="M148.311 14.3785C148.311 14.627 148.289 14.8755 148.266 15.0111H143.574C143.732 16.3666 144.499 16.954 145.356 16.954C145.943 16.954 146.417 16.7281 146.89 16.3892L147.725 17.2929C147.093 17.8803 146.371 18.2192 145.289 18.2192C143.619 18.2192 142.221 16.8863 142.221 14.5366C142.221 12.187 143.484 10.8314 145.334 10.8314C147.341 10.8314 148.311 12.4581 148.311 14.3785ZM146.913 13.8588C146.845 12.8874 146.394 12.074 145.243 12.074C144.319 12.074 143.755 12.7292 143.619 13.8588H146.913Z" fill="#194070"/>
<path d="M112.082 23.8232C112.082 25.7661 110.819 26.8054 109.014 26.8054H106.601V30.3298H105.247V20.8635H109.127C110.841 20.8635 112.105 21.8576 112.105 23.8232M110.684 23.8232C110.684 22.7839 110.052 22.1965 109.105 22.1965H106.623V25.4498H109.105C110.165 25.4498 110.684 24.8172 110.684 23.8232Z" fill="#194070"/>
<path d="M117.745 23.3713L117.384 24.7043C117.091 24.5461 116.798 24.4558 116.347 24.4558C115.489 24.4558 114.993 25.0883 114.993 26.2857V30.3524H113.64V23.2583H114.993V23.9361C115.309 23.4617 115.895 23.1228 116.572 23.1228C117.136 23.1228 117.475 23.2358 117.745 23.4165" fill="#194070"/>
<path d="M124.602 26.7376C124.602 29.0872 123.248 30.4654 121.466 30.4654C119.684 30.4654 118.398 28.9969 118.398 26.7828C118.398 24.4557 119.752 23.0775 121.489 23.0775C123.226 23.0775 124.579 24.5235 124.579 26.7376M123.203 26.7828C123.203 25.3369 122.527 24.4106 121.421 24.4106C120.384 24.4106 119.752 25.3368 119.752 26.7602C119.752 28.3191 120.451 29.1776 121.489 29.1776C122.527 29.1776 123.203 28.1157 123.203 26.8054" fill="#194070"/>
<path d="M129.636 28.906L129.478 30.126C129.139 30.3068 128.688 30.4423 128.147 30.4423C127.177 30.4423 126.59 29.8323 126.59 28.5671V24.4779H125.598V23.2127H126.59V21.1794L127.921 20.4565V23.2127H129.636V24.4779H127.921V28.3412C127.921 28.9964 128.124 29.1997 128.643 29.1997C129.004 29.1997 129.387 29.0642 129.658 28.906" fill="#194070"/>
<path d="M136.782 26.6246C136.782 26.8731 136.76 27.1217 136.737 27.2572H132.136C132.293 28.6128 133.038 29.2002 133.895 29.2002C134.482 29.2002 134.933 28.9743 135.406 28.6354L136.219 29.5391C135.609 30.1265 134.888 30.4654 133.827 30.4654C132.203 30.4654 130.827 29.1324 130.827 26.7828C130.827 24.4331 132.068 23.0775 133.872 23.0775C135.835 23.0775 136.805 24.7043 136.805 26.6246M135.429 26.105C135.361 25.1335 134.91 24.3202 133.782 24.3202C132.88 24.3202 132.316 24.9754 132.203 26.105H135.429Z" fill="#194070"/>
<path d="M143.596 24.275L142.784 25.2691C142.22 24.6817 141.701 24.4106 141.092 24.4106C140.099 24.4106 139.468 25.3143 139.468 26.7602C139.468 28.2061 140.054 29.155 141.137 29.155C141.791 29.155 142.175 28.8613 142.716 28.2739L143.596 29.155C143.054 29.8554 142.355 30.488 141.114 30.488C139.423 30.488 138.114 29.0194 138.114 26.8054C138.114 24.4557 139.468 23.0775 141.16 23.0775C142.175 23.0775 142.964 23.5069 143.618 24.275" fill="#194070"/>
<path d="M148.739 28.906L148.581 30.126C148.243 30.3068 147.792 30.4423 147.25 30.4423C146.28 30.4423 145.694 29.8323 145.694 28.5671V24.4779H144.701V23.2127H145.694V21.1794L147.025 20.4565V23.2127H148.739V24.4779H147.025V28.3412C147.025 28.9964 147.228 29.1997 147.747 29.1997C148.107 29.1997 148.491 29.0642 148.762 28.906" fill="#194070"/>
<path d="M97.5348 1.18492C97.5348 0.885462 97.2975 0.6427 97.0047 0.6427C96.7119 0.6427 96.4746 0.885462 96.4746 1.18492V59.3608C96.4746 59.6602 96.7119 59.9031 97.0047 59.9031C97.2975 59.9031 97.5348 59.6602 97.5348 59.3608V1.18492Z" fill="#1A3F70"/>
<path d="M152.144 21.4054C152.144 21.9024 151.738 22.3091 151.265 22.3091C150.791 22.3091 150.385 21.9024 150.385 21.4054C150.385 20.9083 150.791 20.5017 151.265 20.5017C151.738 20.5017 152.144 20.9083 152.144 21.4054ZM151.941 30.3068H150.588V23.2128H151.941V30.3068Z" fill="#194070"/>
<path d="M159.84 26.7376C159.84 29.0872 158.487 30.4654 156.705 30.4654C154.923 30.4654 153.637 28.9969 153.637 26.7828C153.637 24.4557 154.99 23.0775 156.727 23.0775C158.464 23.0775 159.818 24.5235 159.818 26.7376M158.442 26.7828C158.442 25.3369 157.765 24.4106 156.66 24.4106C155.622 24.4106 154.99 25.3368 154.99 26.7602C154.99 28.3191 155.689 29.1776 156.727 29.1776C157.765 29.1776 158.442 28.1157 158.442 26.8054" fill="#194070"/>
<path d="M167.033 30.3298H165.679V26.3083C165.679 24.885 165.138 24.3654 164.258 24.3654C163.378 24.3654 162.837 25.0206 162.837 26.1728V30.3298H161.483V23.2357H162.837V23.9135C163.175 23.3939 163.875 23.0775 164.574 23.0775C166.198 23.0775 167.055 24.162 167.055 26.2631V30.3298H167.033Z" fill="#194070"/>
<path d="M115.826 37.3557C115.826 40.3379 113.751 41.9871 110.75 41.9871H107.119V47.8838H105.449V32.8823H111.044C113.751 32.8823 115.803 34.3057 115.803 37.3557M114.134 37.4234C114.134 35.5031 113.029 34.396 110.976 34.396H107.096V40.4509H110.75C113.029 40.4509 114.134 39.4116 114.134 37.4009" fill="#BE992F"/>
<path d="M124.627 36.6781L124.221 38.3048C123.77 38.0563 123.274 37.8755 122.529 37.8755C120.973 37.8755 120.093 39.1407 120.093 41.287V47.884H118.491V36.6329H120.093V38.0337C120.612 37.13 121.672 36.407 122.867 36.407C123.702 36.407 124.244 36.52 124.627 36.6781Z" fill="#BE992F"/>
<path d="M135.813 42.1674C135.813 45.9856 133.625 48.1093 130.896 48.1093C128.166 48.1093 126.068 46.0759 126.068 42.2578C126.068 38.4397 128.256 36.3837 130.986 36.3837C133.716 36.3837 135.813 38.3493 135.813 42.1674ZM134.212 42.2126C134.212 39.253 132.881 37.7845 130.941 37.7845C129.001 37.7845 127.693 39.253 127.693 42.2126C127.693 45.1722 129.001 46.7085 130.941 46.7085C132.881 46.7085 134.212 45.1722 134.212 42.2126Z" fill="#BE992F"/>
<path d="M147.159 46.8667C147.159 50.2556 145.648 51.8822 141.474 51.9952L140.955 50.7752C144.7 50.6622 145.557 49.6908 145.557 47.07V46.4826C144.768 47.3411 143.708 48.0867 142.174 48.0867C139.918 48.0867 138.158 46.3697 138.158 42.4159C138.158 38.4622 140.031 36.3837 142.399 36.3837C143.82 36.3837 144.768 36.9937 145.557 37.8748V36.6097H147.159V46.8441V46.8667ZM145.557 45.0819V39.4789C144.926 38.53 143.843 37.7845 142.512 37.7845C140.662 37.7845 139.737 39.3885 139.737 42.4159C139.737 45.24 140.798 46.7311 142.58 46.7311C143.775 46.7311 144.768 46.0985 145.557 45.1045" fill="#BE992F"/>
<path d="M156.838 36.6781L156.432 38.3048C155.981 38.0563 155.484 37.8755 154.74 37.8755C153.184 37.8755 152.304 39.1407 152.304 41.287V47.884H150.702V36.6329H152.304V38.0337C152.823 37.13 153.883 36.407 155.078 36.407C155.913 36.407 156.454 36.52 156.838 36.6781Z" fill="#BE992F"/>
<path d="M166.697 47.8834H165.095V46.5052C164.305 47.3637 163.2 48.1093 161.598 48.1093C159.839 48.1093 158.012 47.2282 158.012 44.5171C158.012 41.9867 160.087 40.9248 162.32 40.9248C163.448 40.9248 164.463 41.196 165.118 41.5574V40.2245C165.118 38.5526 164.328 37.7393 162.681 37.7393C161.508 37.7393 160.538 38.0556 159.613 38.5978L159.004 37.2874C159.997 36.7452 161.305 36.3837 162.771 36.3837C165.185 36.3837 166.697 37.4004 166.697 40.0211V47.8608V47.8834ZM165.095 45.1271V42.8678C164.373 42.4611 163.584 42.2352 162.208 42.2352C160.561 42.2352 159.568 43.0259 159.568 44.4493C159.568 46.1211 160.493 46.8441 161.847 46.8441C163.29 46.8441 164.396 46.0985 165.072 45.1497" fill="#BE992F"/>
<path d="M184.834 47.884H183.232V41.3096C183.232 38.734 182.442 37.8077 180.818 37.8077C179.307 37.8077 178.314 38.8244 178.314 41.3096V47.884H176.713V41.3096C176.713 38.734 175.855 37.8077 174.299 37.8077C172.742 37.8077 171.795 38.8244 171.795 41.3096V47.884H170.193V36.6329H171.795V38.0111C172.381 37.0396 173.306 36.407 174.637 36.407C176.216 36.407 177.186 37.2655 177.728 38.3274C178.382 37.2655 179.307 36.407 181.134 36.407C183.412 36.407 184.856 37.7626 184.856 41.0385V47.884H184.834Z" fill="#BE992F"/>
<path d="M181.022 32.8819C180.842 32.8819 180.661 32.8367 180.503 32.7463C174.345 29.0863 169.766 22.9638 169.788 20.7723C169.811 17.9031 169.788 10.1764 169.788 6.99086V6.78752C169.788 6.62938 169.811 6.49382 169.878 6.35826C169.991 6.10975 170.194 5.929 170.442 5.81604C170.69 5.72567 170.984 5.72567 171.232 5.83863C174.255 7.21678 177.751 6.81012 180.345 4.75419C180.706 4.43789 181.293 4.43789 181.676 4.75419C184.27 6.81012 187.744 7.21678 190.767 5.81604C190.903 5.74826 191.06 5.72567 191.196 5.72567C191.76 5.72567 192.234 6.20012 192.234 6.76493V6.96826C192.234 10.1538 192.211 17.8805 192.234 20.7497C192.234 22.9412 187.654 29.0637 181.518 32.7237C181.36 32.8141 181.18 32.8593 181 32.8593L181.022 32.8819ZM170.803 6.81012L170.848 6.99086C170.848 10.1764 170.871 17.9031 170.848 20.7723C170.848 22.2409 174.774 28.0922 181.045 31.82C187.293 28.0922 191.218 22.2409 191.218 20.7723C191.196 17.9031 191.218 10.1764 191.218 6.99086V6.83271C187.857 8.3916 183.955 7.91715 181.045 5.61271C178.112 7.89456 174.21 8.369 170.826 6.83271L170.803 6.81012Z" fill="#194070"/>
<path d="M189.095 9.86052C189.095 9.58941 188.869 9.36348 188.599 9.34089C188.531 9.34089 188.463 9.34089 188.396 9.38608C186.095 10.4705 183.365 10.1542 181.358 8.57274C181.177 8.4146 180.884 8.4146 180.681 8.57274C178.673 10.1316 175.966 10.4479 173.665 9.40867C173.417 9.29571 173.101 9.40867 172.988 9.65719C172.966 9.72497 172.943 9.79274 172.943 9.86052C172.943 9.9283 172.966 17.655 172.943 20.2079C172.943 21.6087 176.147 26.1045 180.748 28.8383C180.906 28.9286 181.087 28.9286 181.245 28.8383C185.869 26.1045 189.072 21.6087 189.072 20.1853C189.05 17.6324 189.072 9.90571 189.072 9.83793M188.057 20.1853C188.057 20.9083 185.531 24.9975 180.997 27.7764C176.485 24.9975 173.936 20.8857 173.936 20.1853C173.981 18.1294 173.936 12.5942 173.936 10.5835C176.305 11.4194 178.944 11.0353 180.997 9.56682C183.049 11.0353 185.689 11.4194 188.057 10.5835V20.1853Z" fill="#194070"/>
<path d="M179.647 27.302V24.9071C178.203 24.8168 176.759 24.4327 175.97 24.0034L176.624 21.1341C177.549 21.5859 178.835 22.0378 180.278 22.0378C181.339 22.0378 182.083 21.7441 182.083 21.0889C182.083 20.4337 181.451 20.0496 179.917 19.5752C177.662 18.8522 176.06 17.7904 176.06 15.6893C176.06 13.7915 177.368 12.3004 179.737 11.8259V9.58928H182.083V11.6678C183.504 11.713 184.497 12.0067 185.241 12.323L184.587 15.0793C184.023 14.8534 183.008 14.3789 181.451 14.3789C180.233 14.3789 179.85 14.8082 179.85 15.2826C179.85 15.8022 180.549 16.1863 182.286 16.7963C184.903 17.6774 185.85 18.8522 185.85 20.75C185.85 22.6478 184.474 24.252 181.993 24.7264V27.8442L179.624 27.302H179.647Z" fill="#BE992F"/>
<path d="M182.262 28.1828L179.374 27.5277V25.1554C177.908 25.0425 176.555 24.6132 175.855 24.2517L175.675 24.1614L176.464 20.7724L176.758 20.9305C177.953 21.5179 179.149 21.8116 180.299 21.8116C180.75 21.8116 181.833 21.7439 181.833 21.1339C181.833 20.7272 181.495 20.3883 179.871 19.8687C177.976 19.2587 175.833 18.242 175.833 15.7342C175.833 13.7009 177.209 12.1872 179.51 11.6676V9.36313H182.375V11.4416C183.502 11.5094 184.472 11.7128 185.375 12.1194L185.578 12.2098L184.788 15.4857L184.36 15.305C183.796 15.0791 182.848 14.6724 181.472 14.6724C180.976 14.6724 180.141 14.7628 180.141 15.305C180.141 15.7342 181.224 16.1635 182.397 16.5702C185.014 17.4513 186.142 18.6939 186.142 20.7724C186.142 22.8509 184.676 24.4325 182.284 24.9521V28.1828H182.262ZM179.893 27.0984L181.72 27.5051V24.5003L181.946 24.4551C184.179 24.0484 185.578 22.625 185.578 20.7498C185.578 18.8746 184.63 17.8805 182.194 17.0672C180.457 16.4572 179.577 16.0279 179.577 15.305C179.577 14.9661 179.758 14.1528 181.427 14.1528C182.803 14.1528 183.751 14.5142 184.382 14.7628L184.924 12.5261C184.066 12.1872 183.164 12.0065 182.081 11.9613H181.833V9.88276H180.029V12.0742L179.825 12.1194C177.66 12.5487 176.374 13.9042 176.374 15.7116C176.374 17.4287 177.479 18.5131 180.051 19.3491C181.54 19.8009 182.397 20.2528 182.397 21.1113C182.397 21.4728 182.194 22.3313 180.322 22.3313C179.194 22.3313 178.021 22.0602 176.87 21.5405L176.329 23.8903C177.073 24.2291 178.337 24.5906 179.713 24.6584H179.961V27.121L179.893 27.0984Z" fill="#BE992F"/>
</g>
</svg>
