<svg width="25" height="25" viewBox="0 0 25 25" fill="none" xmlns="http://www.w3.org/2000/svg">
<path d="M12.0381 18.1445H12.0481M8.23809 22.6445H15.8381C16.9582 22.6445 17.5182 22.6445 17.9461 22.4265C18.3224 22.2348 18.6284 21.9288 18.8201 21.5525C19.0381 21.1247 19.0381 20.5646 19.0381 19.4445V5.84453C19.0381 4.72443 19.0381 4.16437 18.8201 3.73655C18.6284 3.36023 18.3224 3.05426 17.9461 2.86252C17.5182 2.64453 16.9582 2.64453 15.8381 2.64453H8.23809C7.11798 2.64453 6.55793 2.64453 6.1301 2.86252C5.75378 3.05426 5.44782 3.36023 5.25607 3.73655C5.03809 4.16437 5.03809 4.72443 5.03809 5.84453V19.4445C5.03809 20.5646 5.03809 21.1247 5.25607 21.5525C5.44782 21.9288 5.75378 22.2348 6.1301 22.4265C6.55793 22.6445 7.11798 22.6445 8.23809 22.6445ZM12.5381 18.1445C12.5381 18.4207 12.3142 18.6445 12.0381 18.6445C11.7619 18.6445 11.5381 18.4207 11.5381 18.1445C11.5381 17.8684 11.7619 17.6445 12.0381 17.6445C12.3142 17.6445 12.5381 17.8684 12.5381 18.1445Z" stroke="#1570EF" stroke-width="2" stroke-linecap="round" stroke-linejoin="round"/>
</svg>
