<svg width="27" height="26" viewBox="0 0 27 26" fill="none" xmlns="http://www.w3.org/2000/svg">
<path d="M13.4416 15.7066V9.20665M10.1916 12.4566H16.6916M22.1082 12.9983C22.1082 18.3158 16.3081 22.1832 14.1977 23.4144C13.9579 23.5544 13.838 23.6243 13.6687 23.6606C13.5374 23.6888 13.3458 23.6888 13.2144 23.6606C13.0452 23.6243 12.9253 23.5544 12.6854 23.4144C10.575 22.1832 4.7749 18.3158 4.7749 12.9983V7.81738C4.7749 6.95124 4.7749 6.51817 4.91656 6.14591C5.0417 5.81705 5.24505 5.52361 5.50903 5.29097C5.80786 5.02762 6.21335 4.87556 7.02434 4.57144L12.833 2.39321C13.0582 2.30875 13.1708 2.26652 13.2866 2.24978C13.3894 2.23494 13.4937 2.23494 13.5965 2.24978C13.7124 2.26652 13.825 2.30875 14.0502 2.39321L19.8588 4.57144C20.6698 4.87556 21.0753 5.02762 21.3741 5.29097C21.6381 5.52361 21.8414 5.81705 21.9666 6.14591C22.1082 6.51817 22.1082 6.95124 22.1082 7.81738V12.9983Z" stroke="#1A3F70" stroke-width="2" stroke-linecap="round" stroke-linejoin="round"/>
</svg>
